<svg xmlns="http://www.w3.org/2000/svg" viewBox="0 0 512 512">
  <rect width="512" height="512" rx="96" fill="#22c55e"/>
  <path d="M256 96c-88.4 0-160 71.6-160 160 0 70.7 45.8 130.7 109.3 151.8 2.7-45.2 19.5-86.9 46.7-120.1-35.3 14.2-60.3 48.3-62.8 88.5C152.7 352.8 128 309.4 128 260c0-70.7 57.3-128 128-128 70.7 0 128 57.3 128 128 0 49.4-28 92.8-69.2 114.2-2.5-40.2-27.5-74.3-62.8-88.5 27.2 33.2 44 74.9 46.7 120.1C362.2 386.7 408 326.7 408 256c0-88.4-71.6-160-160-160z" fill="white"/>
  <path d="M256 160c-8.8 0-16 7.2-16 16v120c0 8.8 7.2 16 16 16s16-7.2 16-16V176c0-8.8-7.2-16-16-16z" fill="white"/>
</svg>
